<svg xmlns="http://www.w3.org/2000/svg" viewBox="0 0 32 32">
  <!-- Mandala favicon - chevrons pointing inward forming a ring -->
  <g fill="none" stroke="#4a5d4a" stroke-width="1.5" stroke-linecap="round" stroke-linejoin="round" opacity="0.6">
    <!-- Smaller chevrons pointing toward center, rotated around the ring -->

    <!-- Base chevron pointing down (toward center from top), then rotated -->
    <polyline points="14,3 16,6 18,3" transform="rotate(0,16,16)"/>
    <polyline points="14,3 16,6 18,3" transform="rotate(45,16,16)"/>
    <polyline points="14,3 16,6 18,3" transform="rotate(90,16,16)"/>
    <polyline points="14,3 16,6 18,3" transform="rotate(135,16,16)"/>
    <polyline points="14,3 16,6 18,3" transform="rotate(180,16,16)"/>
    <polyline points="14,3 16,6 18,3" transform="rotate(225,16,16)"/>
    <polyline points="14,3 16,6 18,3" transform="rotate(270,16,16)"/>
    <polyline points="14,3 16,6 18,3" transform="rotate(315,16,16)"/>
  </g>
</svg>
