<svg xmlns="http://www.w3.org/2000/svg" viewBox="0 0 32 32">
  <!-- Mandala favicon - symmetrical chevrons radiating outward -->
  <g fill="none" stroke="#4a5d4a" stroke-width="2" stroke-linecap="round" stroke-linejoin="round" opacity="0.6">
    <!-- Using transforms for perfect symmetry - each chevron rotated 45° from the last -->

    <!-- Base chevron pointing up, then rotated around center (16,16) -->
    <polyline points="13,6 16,2 19,6" transform="rotate(0,16,16)"/>
    <polyline points="13,6 16,2 19,6" transform="rotate(45,16,16)"/>
    <polyline points="13,6 16,2 19,6" transform="rotate(90,16,16)"/>
    <polyline points="13,6 16,2 19,6" transform="rotate(135,16,16)"/>
    <polyline points="13,6 16,2 19,6" transform="rotate(180,16,16)"/>
    <polyline points="13,6 16,2 19,6" transform="rotate(225,16,16)"/>
    <polyline points="13,6 16,2 19,6" transform="rotate(270,16,16)"/>
    <polyline points="13,6 16,2 19,6" transform="rotate(315,16,16)"/>
  </g>
</svg>
